<svg id="Capa_1" enable-background="new 0 0 512 512" height="512" viewBox="0 0 512 512" width="512" xmlns="http://www.w3.org/2000/svg"><g><g><g><path d="m406.068 97.189c89.402 36.87 63.007 117.82 49.536 147.613-1.984 4.388-8.29 4.146-9.937-.38l-51.952-142.737z" fill="#e5d5f5"/><path d="m467.545 326.917c-42.635 52.914-105.29 103.213-177.396 85.657-29.03-7.072-53.732-26.845-66.056-53.076-4.93-10.473-7.89-21.979-8.353-34.121-1.227-32.119 13.401-63.053 7.136-95.344-6.178-31.807-28.373-58.942-60.621-66.207-7.965-1.798-16.145-2.357-24.24-1.744-21.409 5.317-40.697 18.363-52.699 45.283-8.008 17.943-12.776 42.075-12.776 74.194 0 8.299.99 16.253 2.799 23.82-17.9-8.03-33.163-22.399-43.066-39.513-14.057-24.294-18.126-53.463-15.424-81.395 3.035-31.419 14.918-62.817 37.576-84.796 26.705-25.93 65.895-36.187 103.03-33.787 37.145 2.389 72.655 16.242 105.828 33.12 33.174 16.888 64.69 36.941 98.218 53.076 36.166 17.416 86.68 32.442 122.576 7.309 3.66-2.573 8.751-.398 9.515 4.015 8.643 50.062-6.986 104.601-41.106 142.177-3.294 3.617-1.302 9.429 3.531 10.204 2.551.398 5.113.84 7.664 1.238 4.671.719 6.835 6.209 3.864 9.89z" fill="#6a61b2"/><path d="m463.681 317.025c-2.551-.398-5.113-.84-7.664-1.238-4.833-.775-6.824-6.587-3.531-10.204 34.121-37.576 49.75-92.115 41.106-142.177-.764-4.413-5.855-6.587-9.515-4.015-6.29 4.404-13.03 7.571-20.061 9.712 7.636 49.316-8.02 102.577-41.53 139.48-3.294 3.616-1.302 9.429 3.531 10.204 2.551.398 5.113.84 7.664 1.238 4.672.721 6.835 6.211 3.864 9.892-31.002 38.476-72.591 75.56-120.7 86.188 60.83 1.349 113.419-42.919 150.7-89.189 2.971-3.68.807-9.17-3.864-9.891z" fill="#5f55ad"/><path d="m206.401 422.896v-66.992h-82.795v66.992c0 3.595-2.351 6.762-5.791 7.804-31.784 9.627-83.786 19.016-83.786 62.667v4.699c0 3.554 2.881 6.435 6.435 6.435h249.078c3.554 0 6.435-2.881 6.435-6.435v-4.699c0-43.651-52.002-53.04-83.786-62.667-3.439-1.043-5.79-4.21-5.79-7.804z" fill="#ffcdbe"/><path d="m212.193 430.699c-3.44-1.042-5.791-4.209-5.791-7.804v-66.992h-27v72.992c0 3.595 2.351 6.761 5.791 7.803 31.784 9.627 83.786 13.016 83.786 56.667v4.699c0 3.554-2.881 6.436-6.435 6.436h27c3.554 0 6.435-2.881 6.435-6.435v-4.699c-.001-43.651-52.003-53.04-83.786-62.667z" fill="#ebae9d"/><ellipse cx="78.93" cy="282.492" fill="#ebae9d" rx="45.637" ry="36.542"/><path d="m215.74 325.378c.463 12.141 3.423 23.648 8.353 34.121-19.515 20.042-43.334 31.613-59.093 31.613-26.898 0-77.294-33.712-89.661-85.732-1.808-7.567-2.799-15.521-2.799-23.82 0-32.119 4.768-56.251 12.776-74.194 12.002-26.92 31.29-39.965 52.699-45.283 8.094-.614 16.275-.054 24.24 1.744 32.248 7.265 54.442 34.401 60.621 66.207 6.265 32.29-8.363 63.225-7.136 95.344z" fill="#ffcdbe"/><path d="m143.065 383.556c-1.801 0-3.714-.166-5.715-.487 10.186 5.235 19.895 8.042 27.65 8.042 15.758 0 39.578-11.571 59.093-31.613-4.233-8.993-7.008-18.749-8.003-29.013-19.611 33.016-53.066 53.071-73.025 53.071z" fill="#ebae9d"/><g><path d="m386.701 97.189c-89.402 36.87-63.007 117.82-49.536 147.613 1.984 4.388 8.29 4.146 9.937-.38l51.952-142.737z" fill="#f2eafa"/></g><circle cx="396.384" cy="99.089" fill="#92e0c4" r="21.511"/></g></g><g><path d="m464.843 309.624c-1.257-.197-4.696-.762-5.155-.837 34.407-39.071 50.214-95.015 41.294-146.64-1.693-9.853-13.059-14.613-21.202-8.893-1.907 1.335-3.865 2.534-5.865 3.621-6.723-24.717-23.008-44.412-48.541-58.686-.253-8.165-3.889-15.492-9.559-20.615l6.555-18.004c3.185 3.659 7.256 6.476 11.941 8.181 7.327 2.666 15.206 2.287 22.19-.969 7.025-3.276 12.354-9.092 15.006-16.376l4.165-11.443c2.651-7.285 2.307-15.165-.969-22.191-3.276-7.025-9.092-12.354-16.376-15.006-15.033-5.471-31.722 2.308-37.196 17.345l-18.779 51.595c-3.937-.826-7.994-.827-11.932 0l-18.78-51.595c-2.651-7.285-7.98-13.1-15.006-16.376-7.026-3.275-14.906-3.62-22.19-.969-7.285 2.651-13.1 7.98-16.376 15.006-3.276 7.025-3.62 14.906-.969 22.19l4.165 11.444c4.285 11.772 15.441 19.096 27.299 19.096 3.289 0 6.632-.563 9.896-1.751 4.685-1.705 8.757-4.523 11.942-8.182l6.555 18.004c-5.671 5.123-9.307 12.451-9.559 20.617-14.719 8.237-26.462 18.391-35.016 30.288-7.242-3.987-14.491-8.074-21.551-12.059-14.335-8.09-29.157-16.455-44.145-24.085-41.318-21.027-75.874-31.805-108.744-33.919-18.997-1.231-38.228.785-55.615 5.831-3.978 1.154-6.267 5.315-5.112 9.293 1.154 3.978 5.316 6.268 9.293 5.112 15.734-4.566 33.185-6.388 50.467-5.268 30.769 1.979 63.47 12.249 102.907 32.318 14.7 7.483 29.38 15.768 43.576 23.78 6.947 3.921 14.075 7.942 21.226 11.883-8.162 16.767-10.995 36.126-8.416 57.671 2.389 19.964 8.965 37.589 14.063 48.866 2.102 4.636 6.662 7.562 11.715 7.562 5.448 0 10.244-3.367 12.104-8.473 2.755-7.566 16.616-45.648 28.344-77.872 34.216 12.478 73.613 17.664 104.051-2.333 7.506 47.411-7.569 98.478-39.598 133.746-3.393 3.722-4.472 8.978-2.817 13.718 1.648 4.722 5.747 8.15 10.728 8.953 1.257.197 4.824.783 5.349.869-68.656 84.196-129.346 90.695-168.279 81.213-37.711-9.184-67.219-41.393-68.689-80.189-.5-13.069 1.789-25.941 4.212-39.569 3.253-18.294 6.617-37.21 2.796-56.923-.531-2.733-1.182-5.424-1.925-8.076 12.198 15.54 21.783 33.325 26.144 47.716 1.201 3.964 5.388 6.204 9.352 5.003s6.204-5.388 5.003-9.352c-8.872-29.281-35.899-69.378-66.006-86.45-10.975-10.445-24.288-17.634-38.897-20.924-12.512-2.828-25.186-2.338-27.7-1.713-1.614.401-3.201.841-4.762 1.316 6.439-4.349 13.427-7.889 20.743-10.395 19.092-6.539 49.43-9.085 85.531 15.927 3.405 2.359 8.077 1.511 10.436-1.894s1.511-8.077-1.894-10.436c-41.25-28.579-76.568-25.447-98.933-17.787-29.981 10.268-55.286 35.514-64.707 64.456-1.477 2.659-2.867 5.428-4.157 8.321-4.527 10.15-7.914 21.861-10.157 35.023-13.451 2.22-24.89 8.525-32.505 17.274-12.644-25.307-13.318-52.497-11.489-71.416 3.146-32.624 15.695-61.084 35.338-80.138 4.992-4.847 10.638-9.26 16.783-13.119 3.508-2.203 4.566-6.832 2.363-10.34-2.202-3.508-6.831-4.566-10.34-2.363-7.033 4.416-13.512 9.483-19.254 15.058-22.192 21.527-36.335 53.298-39.822 89.46-2.96 30.624 1.815 62.233 17.868 88.335-.957 3.335-1.463 6.819-1.463 10.405 0 23.054 21.489 42.013 48.737 43.876 8.736 19.999 23.212 38.243 41.582 52.097v44.434c0 .287-.187.536-.475.623-18.38 5.569-42.202 10.768-60.976 22.476-18.664 11.64-28.127 27.578-28.127 47.37v4.69c0 7.686 6.249 13.94 13.93 13.94h249.076c7.686 0 13.94-6.253 13.94-13.94-.488-2.782 3.374-25.136-17.487-44.09-3.065-2.786-7.808-2.559-10.594.507-2.786 3.065-2.559 7.808.507 10.594 15.161 13.776 12.174 29.571 12.574 31.929h-246.945v-3.63c0-14.672 6.694-25.68 21.065-34.642 16.72-10.428 39.937-15.56 57.379-20.846 6.66-2.008 11.135-8.028 11.135-14.981v-34.672c12.027 6.616 23.996 10.384 33.89 10.384 9.97 0 21.926-3.823 33.899-10.426v34.714c0 6.949 4.469 12.968 11.117 14.978 11.54 3.493 25.077 6.793 37.956 11.607 3.866 1.444 8.196-.505 9.651-4.399 1.45-3.88-.52-8.201-4.399-9.651-13.516-5.052-27.64-8.515-38.865-11.913-.275-.083-.46-.333-.46-.621v-44.469c2.801-2.11 5.556-4.351 8.235-6.718 14.304 23.686 38.416 41.368 66.239 48.144 10.352 2.521 20.759 3.779 31.198 3.779 24.616 0 49.403-6.998 74.019-20.939 27.489-15.567 54.335-39.479 79.791-71.065 3.091-3.829 3.876-8.856 2.1-13.445-1.787-4.611-5.773-7.814-10.645-8.565zm-11.646-293.764c3.519 1.281 6.329 3.855 7.911 7.249 1.583 3.394 1.749 7.202.468 10.721l-4.165 11.444c-1.281 3.519-3.855 6.329-7.249 7.911s-7.202 1.749-10.721.468-6.329-3.855-7.911-7.249c-1.569-3.366-1.752-7.142-.495-10.633.425-1.18-1.555 4.27 4.192-11.531 2.643-7.265 10.706-11.024 17.97-8.38zm-99.865 37.794c-7.266 2.644-15.326-1.115-17.97-8.379l-4.165-11.444c-2.65-7.282 1.096-15.32 8.379-17.97 7.281-2.651 15.321 1.097 17.97 8.379.428 1.176-1.518-4.273 4.183 11.503 2.623 7.259-1.13 15.266-8.397 17.911zm57.065 45.442c0 7.725-6.286 14.011-14.011 14.011s-14.011-6.286-14.011-14.011 6.286-14.011 14.011-14.011c7.726 0 14.011 6.285 14.011 14.011zm-68.518 137.755c-21.255-50.792-7.649-82.933-.619-94.618 6.766-11.247 16.806-20.926 29.884-28.865 2.708 4.771 6.725 8.705 11.565 11.304.001 0-33.818 92.917-40.83 112.179zm54.508-105.9 10.967 30.138c-6.859-1.692-13.497-3.792-19.73-6.063.831-2.283 6.841-18.795 8.763-24.075zm28.093 33.336-14.416-39.616c4.842-2.6 8.861-6.537 11.569-11.311 20.304 12.327 33.125 28.796 38.23 49.094-11.329 3.066-23.434 3.304-35.383 1.833zm-383.681 118.207c0-12.406 10.629-23.315 25.451-27.36-1.795 18.87-2.201 37.398 2.688 55.379-16.194-3.354-28.139-14.641-28.139-28.019zm167.452 43.173c.419 11.061 2.741 21.843 6.91 32.119-18.674 17.715-38.772 25.827-50.154 25.827-26.799 0-84.958-41.048-84.958-102.05 0-29.164 4.08-53.098 12.126-71.137 1.226-2.749 2.542-5.364 3.947-7.847.029-.053.064-.101.093-.155 9.362-17.44 23.93-28.011 43.006-32.904 7.249-.487 14.442.062 21.398 1.633 29.31 6.6 49.233 31.134 54.904 60.309 3.29 16.973.313 33.714-2.839 51.439-2.456 13.809-4.995 28.088-4.433 42.766z"/><path d="m182.984 320.712c-12.095 5.742-23.853 5.742-35.948 0-3.742-1.776-8.215-.184-9.992 3.558-1.776 3.742-.183 8.215 3.559 9.992 8.098 3.845 16.253 5.767 24.407 5.767 8.155 0 16.309-1.922 24.407-5.767 3.742-1.777 5.335-6.25 3.559-9.992-1.777-3.741-6.249-5.335-9.992-3.558z"/><path d="m136.379 260.83c0-4.142-3.358-7.5-7.5-7.5s-7.5 3.358-7.5 7.5v10.481c0 4.142 3.358 7.5 7.5 7.5s7.5-3.358 7.5-7.5z"/><path d="m139.33 238.367c1.194.703 2.503 1.037 3.796 1.037 2.57 0 5.074-1.322 6.471-3.698 2.1-3.57.909-8.167-2.662-10.267-11.812-6.949-24.3-6.949-36.113 0-3.57 2.1-4.762 6.697-2.662 10.267s6.696 4.762 10.267 2.662c7.131-4.195 13.773-4.195 20.903-.001z"/></g></g></svg>