<svg id="_x33_0" enable-background="new 0 0 64 64" height="512" viewBox="0 0 64 64" width="512" xmlns="http://www.w3.org/2000/svg"><g><g><path d="m39 62h-6l-4-6.18v-7.82h20v14z" fill="#838f9b"/><g fill="#ff826e"><path d="m32 42h17v6h-20v-9c0 .83.34 1.58.88 2.12s1.29.88 2.12.88z"/><path d="m49 36h-10v-7l5 2 1.99-6.21 2.81.66c1.44.36 2.75 1.1 3.8 2.15 1.54 1.54 2.4 3.62 2.4 5.79v2.61z"/><path d="m32 24.75 2 6.25 5-2v7h-7c-.36 0-.7.06-1.01.18v-.01l.01-8.17v-2c0-.32-.08-.63-.21-.9.34-.11.68-.22 1.03-.31z"/></g><path d="m35.03 24.08c.66 1.92 2.29 3.8 3.97 4.92l-5 2-2-6.25z" fill="#fc6e51"/><path d="m45.99 24.79-1.99 6.21-5-2c1.68-1.12 3.3-3 3.97-4.91z" fill="#fc6e51"/><path d="m47.07 4.07-.07-.07c-1.28-1.28-3.02-2-4.83-2h-8.24c-1.24 0-2.42.49-3.3 1.36-.08.09-.17.18-.26.27-.88.87-1.37 2.06-1.37 3.31v.05c0 .83.27 1.62.76 2.26h-.01l-.75.75c-.64.64-1 1.51-1 2.41 0 1.03.35 2.03.99 2.83l3.1 3.86c-.06-.36-.09-.72-.09-1.1v-7-.12c0 .55.22 1.05.58 1.41.36.37.86.59 1.42.59 2 0 3.25-1 4.24-2 .98-1 1.7-2 2.64-2 1.36 0 2.66.54 3.62 1.5s1.5 2.26 1.5 3.62v4c0 .4-.03.79-.1 1.16l.39-.64c.89-1.48 1.56-3.06 2.02-4.71.45-1.65.69-3.35.69-5.08 0-1.75-.69-3.42-1.93-4.66z" fill="#b27946"/><path d="m39 25c1.32 0 2.55-.36 3.61-1.01v.01l.36.09c-.67 1.91-2.29 3.79-3.97 4.91-1.68-1.12-3.31-3-3.97-4.92l.36-.08c1.05.63 2.28 1 3.61 1z" fill="#f0d0b4"/><path d="m34 12.88c2 0 3.25-1 4.24-2 .98-1 1.7-2 2.64-2 1.36 0 2.66.54 3.62 1.5s1.5 2.26 1.5 3.62v4c0 .4-.03.79-.1 1.16-.24 1.47-.94 2.78-1.95 3.79l-1.34 1.04c-1.06.65-2.29 1.01-3.61 1.01-1.33 0-2.56-.37-3.61-1-1.74-1.05-2.98-2.82-3.3-4.9-.06-.36-.09-.72-.09-1.1v-7-.12c0 .55.22 1.05.58 1.41.36.37.86.59 1.42.59z" fill="#f0d0b4"/><path d="m55 36v1c0 2.76-2.24 5-5 5h-1-17c-.83 0-1.58-.34-2.12-.88s-.88-1.29-.88-2.12c0-.36.06-.7.18-1.01.3-.85.96-1.51 1.81-1.81.31-.12.65-.18 1.01-.18h7 10z" fill="#f0d0b4"/><path d="m22 45v7 10h-4v-10-7-3h4z" fill="#d3a06c"/><path d="m18 45v7l-6 10h-5z" fill="#d3a06c"/><path d="m29 55.82 4 6.18h-5l-5.95-10h-.05v-7z" fill="#d3a06c"/><path d="m24 17v2c0 .55-.45 1-1 1h-1-4-1c-.55 0-1-.45-1-1v-2c0-.55.45-1 1-1h6c.55 0 1 .45 1 1z" fill="#ccd1d9"/><path d="m22 20v4h-2-2v-4z" fill="#aab2bd"/><path d="m25 38v3c0 .55-.45 1-1 1h-2-4-2c-.55 0-1-.45-1-1v-3h4.91l.18-.01h4.91z" fill="#aab2bd"/><path d="m13 31c0 3.84 3.08 6.95 6.91 7h-4.91-4c-1.1 0-2-.9-2-2v-8h4.67.01c-.44.91-.68 1.92-.68 3z" fill="#ccd1d9"/><path d="m20.09 37.99c3.83-.04 6.91-3.15 6.91-6.99 0-1.08-.24-2.09-.68-3h.01 4.67l-.01 8.17v.01c-.85.3-1.51.96-1.81 1.81h-.01-4.17z" fill="#ccd1d9"/><path d="m18 24h2c-2.8 0-5.2 1.63-6.32 4h-.01-4.67v-2c0-1.1.9-2 2-2z" fill="#b4dd7f"/><path d="m30.79 25.1c.13.27.21.58.21.9v2h-4.67-.01c-1.12-2.37-3.52-4-6.32-4h2 7c.78 0 1.45.45 1.79 1.1z" fill="#b4dd7f"/><path d="m26.32 28c.44.91.68 1.92.68 3 0 3.84-3.08 6.95-6.91 6.99l-.18.01c-3.83-.05-6.91-3.16-6.91-7 0-1.08.24-2.09.68-3 1.12-2.37 3.52-4 6.32-4s5.2 1.63 6.32 4z" fill="#69d6f4"/><circle cx="20" cy="31" fill="#4fc1e9" r="3"/></g><g><path d="m20 27c-2.206 0-4 1.794-4 4s1.794 4 4 4 4-1.794 4-4-1.794-4-4-4zm0 6c-1.103 0-2-.897-2-2s.897-2 2-2 2 .897 2 2-.897 2-2 2z"/><circle cx="35.999" cy="16" r="1"/><circle cx="41.999" cy="16" r="1"/><path d="m35.104 19.447.105.211c.723 1.445 2.175 2.342 3.79 2.342 1.614 0 3.066-.897 3.789-2.342l.105-.211-1.789-.895-.105.211c-.382.763-1.147 1.236-2 1.236s-1.619-.474-2-1.236l-.105-.211z"/><path d="m53.31 26.896c-1.177-1.178-2.652-2.013-4.281-2.419l-4.224-.989c1.023-1.082 1.75-2.444 2.045-3.962l.295-.492c1.867-3.111 2.854-6.675 2.855-10.306 0-2.026-.789-3.931-2.221-5.362l-.073-.073c-1.457-1.457-3.475-2.293-5.535-2.293h-8.24c-1.512 0-2.934.589-4.004 1.657l-.264.263c-1.073 1.07-1.664 2.499-1.664 4.072 0 .742.178 1.456.494 2.099l-.201.201c-.834.834-1.293 1.942-1.293 3.121 0 1.248.43 2.473 1.21 3.449l2.941 3.672c.294 1.505 1.014 2.857 2.026 3.933l-1.595.356c-.138.034-.27.083-.406.122-.547-.578-1.317-.945-2.175-.945h-6v-2c1.103 0 2-.897 2-2v-2c0-1.103-.897-2-2-2h-6c-1.103 0-2 .897-2 2v2c0 1.103.897 2 2 2v2h-6c-1.654 0-3 1.346-3 3v10c0 1.654 1.346 3 3 3l3-.001v2.001c0 1.103.897 2 2 2h1v1.705l-11.838 18.295h44.838v-20c3.309 0 6-2.691 6-6v-3.61c0-2.453-.955-4.76-2.69-6.494zm-21.31 8.104c-.002 0-.005.001-.007.001l.005-6.974 1.377 4.301 4.625-1.851v4.523zm-9 20.553 3.241 5.447h-3.241zm0-3.912v-3.255l8.162 12.614h-2.593zm5 .791-5-7.727v-1.705h1c1.103 0 2-.897 2-2v-2.006l2.001-.001c0 .002-.001.004-.001.007zm-8.076-15.436c-3.273-.041-5.924-2.713-5.924-5.996 0-3.309 2.691-6 6-6s6 2.691 6 6c0 3.283-2.65 5.954-5.923 5.996zm8.076-5.996c0-.692-.097-1.359-.263-2h2.261l-.005 6.56c-.594.348-1.085.839-1.432 1.432l-3.28.001c1.663-1.466 2.719-3.606 2.719-5.993zm11-3.236c-.733-.573-1.397-1.271-1.938-2.011.622.155 1.268.247 1.937.247.67 0 1.318-.092 1.94-.248-.541.741-1.206 1.439-1.939 2.012zm-4.572-2.524c.587 1.24 1.501 2.46 2.599 3.473l-2.402.961-1.338-4.179zm9.138.012 1.138.267-1.329 4.155-2.402-.961c1.095-1.01 2.006-2.226 2.593-3.461zm-12.49-20.917.265-.264c.691-.69 1.611-1.071 2.59-1.071h8.24c1.534 0 3.036.622 4.121 1.707l.073.073c1.054 1.055 1.635 2.456 1.635 3.949-.001 2.022-.343 4.021-1.001 5.915v-.644c0-1.635-.637-3.172-1.793-4.328s-2.693-1.793-4.328-1.793c-1.198 0-2.036.896-2.848 1.764-1.028 1.1-2.092 2.236-4.031 2.236-.552 0-1-.448-1-1s.448-1 1-1h1v-2h-1c-1.116 0-2.08.62-2.597 1.526l-.167-.11c-.774-.514-1.236-1.374-1.236-2.354 0-.987.382-1.913 1.077-2.606zm-2.077 8.079c0-.645.251-1.251.707-1.707l.037-.037c.124.102.251.202.386.292l.869.576v4.61l-1.229-1.534c-.496-.623-.77-1.404-.77-2.2zm4 1.294c.312.11.649.171 1 .171 2.808 0 4.359-1.659 5.492-2.87.52-.556 1.057-1.13 1.387-1.13 1.101 0 2.136.429 2.914 1.207.767.768 1.207 1.829 1.207 2.914v4c0 3.309-2.691 6-6 6s-6-2.691-6-6zm-2.999 12.291-.001 1.001h-3.082c-.437-.753-.994-1.428-1.644-2h3.727c.552 0 1 .448 1 .999zm-13-8.999h6l.002 2h-6.002zm2 4h2v2h-2zm-8 4h3.726c-.65.572-1.206 1.247-1.644 2h-3.082v-1c0-.552.448-1 1-1zm-1 11v-7h2.263c-.166.641-.263 1.308-.263 2 0 2.389 1.058 4.531 2.724 5.998l-3.724.002c-.552 0-1-.448-1-1zm6 2.998 3.924-.002c.026 0 .05.004.076.004s.051-.004.077-.004l3.923-.002v2.006h-8zm5 4.002v18h-2v-18zm-4 18h-3.234l3.234-5.39zm0-12.614v3.337l-5.566 9.277h-2.596zm23 12.614v-7.414l-2.293-2.293-1.414 1.414 1.707 1.707v6.586h-4.456l-3.544-5.477v-6.523h18v12zm8-14h-18v-4.556c.591.344 1.268.556 2 .556h16zm2-6h-18c-1.103 0-2-.897-2-2s.897-2 2-2h22c0 2.206-1.794 4-4 4zm4-6h-4v-4h-2v4h-8v-4.523l4.625 1.85 2.032-6.352 1.902.445c1.262.314 2.416.968 3.337 1.889 1.357 1.358 2.104 3.162 2.104 5.081z"/></g></g></svg>