<svg id="Layer_1" enable-background="new 0 0 512 512" height="512" viewBox="0 0 512 512" width="512" xmlns="http://www.w3.org/2000/svg"><g><g><g clip-rule="evenodd" fill-rule="evenodd"><path d="m504.517 374.191c0 13.324-10.942 24.266-24.265 24.266h-448.476c-13.351 0-24.265-10.941-24.265-24.266v-255.318c0-13.324 10.914-24.266 24.265-24.266h448.476c13.351 0 24.265 10.941 24.265 24.266z" fill="#cbe2ff"/><path d="m504.517 374.191c0 13.324-10.942 24.266-24.265 24.266h-29.142c13.352 0 24.266-10.941 24.266-24.266v-255.318c0-13.324-10.914-24.266-24.266-24.266h29.142c13.351 0 24.265 10.941 24.265 24.266z" fill="#9dc6fb"/><path d="m215.436 398.457 43.256-10.205 38.269 10.205 24.266 58.225-62.535 9.24-67.521-9.24z" fill="#d5c6e4"/><path d="m267.849 398.457h29.112l24.266 58.225h-29.114z" fill="#c6b4da"/><path d="m504.517 374.191c0 13.324-10.942 24.266-24.265 24.266h-448.476c-13.351 0-24.265-10.941-24.265-24.266v-29.141h497.005v29.141zm-343.365 82.491h190.093c3.203 0 5.812 2.637 5.812 5.84v17.461c0 3.203-2.608 5.84-5.812 5.84h-190.093c-3.204 0-5.811-2.637-5.811-5.84v-17.461c0-3.204 2.607-5.84 5.811-5.84z" fill="#e2d8ec"/><path d="m504.517 374.191c0 13.324-10.942 24.266-24.265 24.266h-29.142c13.352 0 24.266-10.941 24.266-24.266v-29.141h29.141zm-182.384 82.491h29.112c3.203 0 5.812 2.637 5.812 5.84v17.461c0 3.203-2.608 5.84-5.812 5.84h-29.112c3.203 0 5.811-2.637 5.811-5.84v-17.461c0-3.204-2.608-5.84-5.811-5.84z" fill="#d5c6e4"/></g><path d="m165.007 379.039c-4.025 0-7.285-3.26-7.285-7.285s3.26-7.285 7.285-7.285h32.91c3.997 0 7.257 3.26 7.257 7.285s-3.26 7.285-7.257 7.285zm173.85 0c-4.025 0-7.285-3.26-7.285-7.285s3.26-7.285 7.285-7.285h8.164c4.025 0 7.257 3.26 7.257 7.285s-3.231 7.285-7.257 7.285zm-37.275 0c-4.026 0-7.286-3.26-7.286-7.285s3.26-7.285 7.286-7.285h8.164c3.996 0 7.257 3.26 7.257 7.285s-3.261 7.285-7.257 7.285zm-37.276 0c-4.025 0-7.285-3.26-7.285-7.285s3.26-7.285 7.285-7.285h8.164c3.996 0 7.256 3.26 7.256 7.285s-3.26 7.285-7.256 7.285zm-37.276 0c-4.025 0-7.285-3.26-7.285-7.285s3.26-7.285 7.285-7.285h8.163c3.997 0 7.257 3.26 7.257 7.285s-3.26 7.285-7.257 7.285z" fill="#61515e"/><path clip-rule="evenodd" d="m317.088 26.207h168.012c10.686 0 19.417 8.73 19.417 19.418v153.412c0 10.688-8.759 19.418-19.417 19.418h-44.25c-4.054 0-7.059 1.957-8.93 4.934l-27.694 43.539c-.964 1.502-2.069 2.154-3.118 2.154-1.077 0-2.183-.652-3.146-2.154l-27.695-43.539c-1.871-2.977-4.876-4.934-8.93-4.934h-44.248c-10.658 0-19.419-8.73-19.419-19.418v-153.412c-.001-10.687 8.76-19.418 19.418-19.418z" fill="#f9f6f6" fill-rule="evenodd"/><path clip-rule="evenodd" d="m455.986 26.207h29.114c10.686 0 19.417 8.73 19.417 19.418v153.412c0 10.688-8.759 19.418-19.417 19.418h-29.113c10.658 0 19.39-8.73 19.39-19.418v-153.412c-.001-10.687-8.732-19.418-19.391-19.418z" fill="#e2d8ec" fill-rule="evenodd"/><path clip-rule="evenodd" d="m401.107 188.01h-23.302c-3.203 0-5.839-2.635-5.839-5.84v-29.678c0-7.398.623-9.609-4.451-14.457-9.212-8.844-14.967-21.289-14.967-35.064 0-19.701 11.735-36.652 28.573-44.25 3.969-1.785 5.472.426 5.415 3.771v29.65c0 3.713 1.956 6.633 5.357 8.078l3.827 1.615c3.685 1.531 7.087 1.531 10.743 0l3.827-1.615c3.401-1.445 5.357-4.365 5.357-8.078v-29.65c-.057-3.346 1.445-5.557 5.414-3.771 16.838 7.598 28.573 24.549 28.573 44.25 0 13.775-5.755 26.221-14.967 35.064-5.074 4.848-4.45 7.059-4.45 14.457v29.678c0 3.205-2.637 5.84-5.84 5.84z" fill="#80b4fb" fill-rule="evenodd"/><path d="m393.822 188.01v-46.205c0-4.023 3.26-7.285 7.285-7.285 3.997 0 7.257 3.262 7.257 7.285v46.205z" fill="#3e6dab"/><path d="m297.669 283.908c-3.996 0-7.256-3.26-7.256-7.258 0-4.025 3.26-7.285 7.256-7.285h64.064c4.025 0 7.285 3.26 7.285 7.285 0 3.998-3.26 7.258-7.285 7.258zm0 29.141c-3.996 0-7.256-3.26-7.256-7.285s3.26-7.285 7.256-7.285h172.804c4.025 0 7.285 3.26 7.285 7.285s-3.26 7.285-7.285 7.285z" fill="#78c2a4"/><path d="m214.218 240.283c0 4.023-3.261 7.285-7.286 7.285s-7.285-3.262-7.285-7.285v-45.299c0-15.393-6.321-29.424-16.47-39.572-10.176-10.176-24.18-16.498-39.6-16.498-15.422 0-29.425 6.322-39.602 16.498-10.147 10.148-16.469 24.18-16.469 39.572v75.459c0 4.025 1.672 7.709 4.337 10.375 2.665 2.664 6.35 4.336 10.403 4.336 3.997 0 7.257 3.26 7.257 7.285s-3.26 7.287-7.257 7.287c-8.079 0-15.393-3.318-20.693-8.619-5.301-5.301-8.589-12.613-8.589-20.664v-75.459c0-19.418 7.938-37.078 20.722-49.891 12.813-12.785 30.473-20.723 49.891-20.723 19.417 0 37.077 7.937 49.89 20.723 12.784 12.813 20.751 30.473 20.751 49.891z" fill="#574654"/><path clip-rule="evenodd" d="m199.646 194.984h28.233c8.221 0 14.968 6.746 14.968 14.967v29.934c0 8.221-6.747 14.967-14.968 14.967h-22.423c-3.203 0-5.811-2.635-5.811-5.838v-54.03zm-112.139 0h-28.234c-8.22 0-14.938 6.746-14.938 14.967v29.934c0 8.221 6.719 14.967 14.938 14.967h28.233v-59.868z" fill="#407093" fill-rule="evenodd"/><path clip-rule="evenodd" d="m199.646 194.984h28.233c8.221 0 14.968 6.746 14.968 14.967v29.934c0 8.221-6.747 14.967-14.968 14.967h-22.423c-.906 0-1.785-.227-2.551-.594 6.236-1.814 10.8-7.598 10.8-14.373v-29.934c0-7.938-6.236-14.457-14.06-14.939v-.028zm-112.139 0h-28.234c-.283 0-.595 0-.879.027v59.813c.284 0 .596.027.879.027h28.233v-59.867z" fill="#365e7d" fill-rule="evenodd"/><path clip-rule="evenodd" d="m117.186 277.473h25.258c8.221 0 14.938 6.719 14.938 14.967 0 8.221-6.718 14.969-14.938 14.969h-25.258c-8.221 0-14.938-6.748-14.938-14.969-.001-8.249 6.717-14.967 14.938-14.967z" fill="#dd636e" fill-rule="evenodd"/></g><path d="m418.37 49.68c11.311 3.656 21.033 10.828 27.922 20.182 6.803 9.297 10.828 20.75 10.828 33.109 0 8.928-2.126 17.432-5.896 25.002-3.345 6.662-7.936 12.557-13.521 17.377v42.66c0 4.139-3.345 7.484-7.483 7.484h-58.253c-4.139 0-7.484-3.346-7.484-7.484v-42.66c-5.584-4.82-10.176-10.715-13.492-17.377-3.799-7.57-5.925-16.074-5.925-25.002 0-12.359 4.025-23.813 10.828-33.109 6.974-9.496 16.895-16.725 28.404-20.353 3.969-1.219 8.164.965 9.383 4.934.227.709.368 1.475.368 2.211v36.34l7.059 2.947 7.059-2.947v-36.34c0-4.139 3.345-7.484 7.483-7.484.963-.002 1.899.168 2.72.51zm-301.184 220.281h25.258c6.18 0 11.792 2.523 15.846 6.605 4.082 4.053 6.605 9.693 6.605 15.873s-2.523 11.793-6.605 15.875c-4.054 4.053-9.666 6.576-15.846 6.576h-25.258c-6.18 0-11.792-2.523-15.846-6.576-2.522-2.524-4.45-5.641-5.556-9.1-5.527-1.246-10.517-4.055-14.4-7.938-5.329-5.357-8.646-12.727-8.646-20.834v-8.107h-13.465c-6.18 0-11.792-2.523-15.846-6.576-4.083-4.082-6.605-9.695-6.605-15.875v-29.934c0-6.18 2.522-11.793 6.605-15.875 4.054-4.053 9.666-6.576 15.846-6.576h13.861c1.758-16.525 9.241-31.379 20.41-42.549 12.841-12.84 30.528-20.807 50.032-20.807 19.502 0 37.19 7.967 50.031 20.807 11.169 11.17 18.652 26.023 20.41 42.549h13.861c6.18 0 11.793 2.523 15.875 6.576 4.053 4.082 6.576 9.695 6.576 15.875v29.934c0 6.18-2.523 11.793-6.576 15.875-4.082 4.053-9.695 6.576-15.875 6.576h-20.948c-4.139 0-7.512-3.346-7.512-7.484v-59.867c0-15.336-6.293-29.311-16.413-39.432-10.12-10.119-24.066-16.412-39.43-16.412-15.336 0-29.312 6.293-39.431 16.412-10.12 10.121-16.413 24.096-16.413 39.432v59.867 15.592c0 3.969 1.645 7.596 4.252 10.232 1.304 1.275 2.835 2.324 4.507 3.063 1.134-2.693 2.778-5.131 4.848-7.172 4.056-4.082 9.668-6.605 15.848-6.605zm25.257 14.996h-25.258c-2.041 0-3.884.85-5.244 2.211-1.36 1.359-2.211 3.23-2.211 5.272 0 2.041.851 3.912 2.211 5.246 1.36 1.359 3.203 2.211 5.244 2.211h25.258c2.041 0 3.883-.852 5.244-2.211 1.36-1.334 2.211-3.205 2.211-5.246s-.851-3.912-2.211-5.272c-1.361-1.361-3.203-2.211-5.244-2.211zm-69.705-82.461h-13.465c-2.041 0-3.883.82-5.244 2.182-1.36 1.361-2.211 3.232-2.211 5.273v29.934c0 2.041.85 3.912 2.211 5.244 1.361 1.361 3.203 2.211 5.244 2.211h13.465zm155.142 0h-13.464v44.844h13.464c2.041 0 3.912-.85 5.244-2.211 1.361-1.332 2.211-3.203 2.211-5.244v-29.934c0-2.041-.85-3.912-2.211-5.273-1.332-1.362-3.203-2.182-5.244-2.182zm69.789 110.779c-4.139 0-7.483-3.373-7.483-7.512s3.345-7.512 7.483-7.512h172.804c4.139 0 7.482 3.373 7.482 7.512s-3.344 7.512-7.482 7.512zm0-29.14c-4.139 0-7.483-3.346-7.483-7.484s3.345-7.512 7.483-7.512h64.064c4.167 0 7.512 3.373 7.512 7.512s-3.345 7.484-7.512 7.484zm7.513-149.672c0 4.139-3.345 7.514-7.513 7.514-4.139 0-7.483-3.375-7.483-7.514v-32.344h-258.41c-4.62 0-8.787 1.871-11.849 4.934-3.033 3.033-4.933 7.229-4.933 11.82v89.064c0 4.141-3.345 7.484-7.483 7.484s-7.511-3.343-7.511-7.483v-89.064c0-8.73 3.572-16.668 9.326-22.422 5.754-5.756 13.691-9.326 22.45-9.326h258.409v-41.5c0-7.428 3.033-14.146 7.909-19.021s11.595-7.908 18.993-7.908h168.013c7.398 0 14.145 3.033 19.02 7.908 4.875 4.874 7.88 11.592 7.88 19.02v153.412 146.014 29.141c0 8.732-3.572 16.67-9.326 22.424s-13.691 9.326-22.422 9.326h-172.037l18 43.256h30.842c4.166 0 7.512 3.346 7.512 7.484v29.141c0 4.139-3.346 7.482-7.512 7.482h-201.716c-4.167 0-7.512-3.344-7.512-7.482v-29.141c0-4.139 3.345-7.484 7.512-7.484h30.841l18-43.256h-172.406c-8.759 0-16.696-3.572-22.45-9.326s-9.326-13.692-9.326-22.425v-29.141-103.152c0-4.139 3.373-7.484 7.512-7.484s7.483 3.346 7.483 7.484v95.67h482.009v-114.408c-3.6 1.787-7.625 2.807-11.904 2.807h-45.951l-31.72 49.891c-2.211 3.516-6.859 4.535-10.347 2.324-.992-.623-1.813-1.475-2.381-2.41l-31.664-49.805h-45.949c-7.398 0-14.117-3.033-18.993-7.908s-7.909-11.596-7.909-19.021v-30.586c0-4.166 3.345-7.512 7.483-7.512 4.168 0 7.513 3.346 7.513 7.512v30.586c0 3.289 1.333 6.264 3.516 8.418 2.154 2.154 5.131 3.516 8.391 3.516h50.06c2.494 0 4.904 1.221 6.321 3.488l27.639 43.426 27.44-43.143c1.275-2.268 3.714-3.771 6.491-3.771h50.06c3.26 0 6.235-1.361 8.39-3.516 2.183-2.154 3.515-5.129 3.515-8.418v-153.413c0-3.287-1.332-6.266-3.515-8.42-2.154-2.154-5.13-3.516-8.39-3.516h-168.012c-3.26 0-6.236 1.361-8.391 3.516-2.183 2.154-3.516 5.133-3.516 8.42v88.838zm191.822 218.1h-482.009v21.629c0 4.592 1.899 8.789 4.933 11.822 3.062 3.06 7.229 4.932 11.849 4.932h448.476c4.592 0 8.787-1.898 11.82-4.932 3.061-3.033 4.932-7.23 4.932-11.822v-21.629zm-331.997 26.703c-4.139 0-7.512-3.373-7.512-7.512s3.373-7.512 7.512-7.512h32.91c4.139 0 7.483 3.373 7.483 7.512s-3.345 7.512-7.483 7.512zm173.85 0c-4.139 0-7.512-3.373-7.512-7.512s3.373-7.512 7.512-7.512h8.164c4.139 0 7.483 3.373 7.483 7.512s-3.345 7.512-7.483 7.512zm-37.275 0c-4.14 0-7.513-3.373-7.513-7.512s3.373-7.512 7.513-7.512h8.164c4.139 0 7.483 3.373 7.483 7.512s-3.345 7.512-7.483 7.512zm-37.276 0c-4.139 0-7.512-3.373-7.512-7.512s3.373-7.512 7.512-7.512h8.164c4.139 0 7.483 3.373 7.483 7.512s-3.345 7.512-7.483 7.512zm-37.276 0c-4.139 0-7.512-3.373-7.512-7.512s3.373-7.512 7.512-7.512h8.163c4.139 0 7.483 3.373 7.483 7.512s-3.345 7.512-7.483 7.512zm46.148 84.927c-4.139 0-7.483-3.346-7.483-7.512 0-4.139 3.345-7.484 7.483-7.484h36.823l-18.029-43.256h-71.547l-18.029 43.256h36.823c4.139 0 7.483 3.346 7.483 7.484 0 4.166-3.345 7.512-7.483 7.512h-76.395v14.117h186.748v-14.117zm120.418-283.695v-38.693c0-4.139 3.345-7.512 7.512-7.512 4.139 0 7.483 3.373 7.483 7.512v38.693h14.117v-38.693h.027c0-2.268 1.049-4.506 3.005-5.98 5.074-3.826 9.241-8.787 12.104-14.514 2.749-5.471 4.28-11.707 4.28-18.34 0-9.1-2.92-17.49-7.909-24.266-3.004-4.082-6.774-7.625-11.055-10.375v29.65c0 2.92-1.729 5.699-4.592 6.889l-14.57 6.123c-1.786.766-3.884.822-5.811 0l-14.343-6.01c-2.808-1.076-4.82-3.826-4.82-7.002v-29.65c-4.28 2.75-8.05 6.293-11.055 10.375-4.961 6.775-7.909 15.166-7.909 24.266 0 6.633 1.531 12.869 4.28 18.34 2.778 5.527 6.775 10.375 11.622 14.145 2.126 1.334 3.516 3.686 3.516 6.35v38.693h14.118z"/></g></svg>